<svg xmlns="http://www.w3.org/2000/svg" viewBox="0 0 2032 2352" width="1016" height="1176" color="#F2E9DC" role="img" aria-label="The Vow Edit logo">
<title>The Vow Edit</title>
<g transform="translate(0.000000,2352.000000) scale(0.100000,-0.100000)"
fill="currentColor" stroke="none">
<path d="M9525 20729 c-309 -33 -408 -50 -665 -111 -481 -116 -921 -315 -1360
-615 -337 -231 -721 -606 -957 -933 -46 -64 -223 -329 -223 -334 0 -2 -18 -34
-40 -71 -82 -133 -204 -397 -282 -605 -116 -310 -187 -617 -233 -1005 l-26
-220 3 -3575 3 -3575 28 -195 c24 -172 43 -272 92 -495 21 -91 108 -365 159
-498 146 -380 386 -789 650 -1107 39 -47 82 -98 96 -115 53 -65 350 -354 425
-415 44 -36 86 -70 93 -77 51 -49 322 -237 462 -320 180 -106 422 -226 590
-290 123 -47 284 -103 339 -117 31 -8 99 -26 152 -40 175 -45 342 -77 514 -97
147 -16 239 -19 677 -19 585 0 683 7 1002 71 101 20 118 25 316 78 467 127
997 401 1403 724 271 216 548 500 742 763 332 448 565 941 696 1474 31 126 34
140 63 305 47 263 46 128 46 4000 0 3170 -2 3657 -15 3774 -24 217 -28 240
-86 491 -207 903 -748 1741 -1494 2311 -248 190 -460 317 -785 474 -228 110
-664 252 -907 296 -29 5 -79 14 -110 19 -32 6 -152 22 -268 35 -192 23 -244
25 -615 24 -223 -1 -441 -5 -485 -10z m665 -39 c384 -33 783 -126 1115 -260
44 -17 109 -43 145 -58 95 -38 414 -202 501 -257 178 -114 221 -144 339 -234
69 -52 170 -134 225 -182 163 -140 448 -443 540 -573 11 -16 25 -33 30 -40 29
-33 195 -272 195 -281 0 -3 15 -28 34 -57 254 -400 474 -1000 541 -1478 9 -63
21 -144 28 -180 16 -90 23 -7241 7 -7439 -11 -140 -50 -404 -76 -519 -53 -236
-136 -512 -199 -657 -7 -16 -27 -64 -45 -105 -204 -472 -502 -906 -880 -1279
-167 -165 -259 -243 -515 -432 -137 -101 -392 -250 -583 -341 -67 -32 -125
-58 -127 -58 -3 0 -24 -9 -48 -19 -344 -154 -832 -274 -1229 -303 -431 -31
-988 73 -1513 282 -195 78 -460 213 -643 329 -71 44 -342 237 -352 250 -3 4
-27 24 -55 46 -223 175 -552 525 -715 760 -19 28 -38 52 -42 55 -7 5 -168 262
-202 321 -83 146 -212 420 -256 542 -10 29 -30 84 -45 122 -35 94 -100 323
-134 475 -36 161 -66 369 -81 560 -13 178 -13 7095 0 7267 54 697 283 1365
661 1929 173 259 298 412 504 620 404 405 805 676 1350 909 278 119 700 227
1050 269 224 27 312 30 475 16z m-735 -20 c-11 -5 -31 -9 -45 -9 -48 -2 -415
-100 -555 -149 -493 -173 -979 -456 -1345 -784 -314 -281 -547 -551 -755 -873
-49 -76 -215 -361 -215 -370 0 -1 -22 -49 -49 -106 -118 -250 -198 -483 -286
-829 -17 -66 -52 -264 -66 -370 -38 -299 -39 -333 -39 -3865 0 -3312 2 -3528
31 -3795 39 -362 144 -766 286 -1104 58 -139 159 -345 212 -434 17 -29 31 -55
31 -57 0 -6 136 -220 165 -260 54 -74 172 -232 190 -254 390 -472 816 -815
1350 -1086 200 -101 322 -153 535 -226 98 -34 442 -124 513 -134 56 -9 73 -25
25 -25 -38 0 -385 55 -438 69 -19 5 -93 24 -165 42 -642 160 -1250 490 -1745
947 -99 91 -318 319 -357 371 -10 12 -38 48 -63 80 -279 346 -492 726 -651
1159 -27 72 -56 158 -64 190 -47 167 -62 228 -99 397 -18 86 -43 246 -58 380
-17 145 -24 7112 -8 7350 12 178 50 454 77 565 52 212 78 307 110 405 158 491
410 944 754 1360 108 130 364 385 509 507 317 265 711 500 1085 648 44 18 89
36 100 41 127 56 551 168 755 199 41 7 93 16 115 20 56 11 186 11 160 0z
m1375 -15 c144 -24 294 -54 415 -85 62 -16 348 -110 435 -143 309 -117 658
-312 960 -536 294 -217 670 -601 863 -881 55 -80 168 -254 199 -305 296 -500
490 -1093 543 -1665 22 -228 22 -7227 0 -7455 -86 -921 -508 -1812 -1172
-2471 -251 -249 -556 -486 -823 -637 -36 -21 -72 -42 -80 -47 -19 -12 -280
-141 -340 -168 -73 -32 -300 -119 -360 -137 -30 -9 -73 -23 -95 -30 -150 -51
-539 -130 -740 -150 -89 -9 -76 7 20 25 182 34 520 132 670 195 17 6 66 27
110 45 147 61 418 203 573 299 551 344 1010 811 1346 1371 89 148 232 429 281
555 15 39 33 84 40 100 62 149 151 475 201 735 62 323 59 89 59 4030 0 3388
-1 3595 -18 3760 -10 96 -22 195 -27 220 -5 25 -14 74 -20 110 -26 141 -94
402 -140 540 -145 432 -332 790 -611 1167 -330 446 -799 855 -1289 1127 -200
111 -420 208 -660 293 -126 45 -493 142 -540 144 -14 0 -34 4 -45 9 -42 18 92
10 245 -15z M7493 17202 c-8 -6 -14 -80 -39 -503 l-6 -96 28 -6 c36 -7 40 -4
62 41 129 259 287 391 534 443 88 19 137 22 343 23 l240 1 0 -988 0 -988 -150
-39 c-146 -37 -273 -77 -385 -120 -30 -12 -75 -28 -100 -36 -70 -24 -387 -185
-481 -245 -395 -251 -735 -611 -896 -949 -78 -162 -102 -234 -129 -390 -19
-113 -15 -316 10 -421 45 -190 150 -352 294 -451 51 -35 202 -107 252 -120
258 -67 601 -59 890 21 19 5 71 19 115 31 157 42 356 121 580 229 649 314
1253 818 1553 1297 99 159 180 326 248 514 19 52 39 99 44 104 13 13 48 -111
56 -196 10 -113 -34 -329 -93 -458 -86 -189 -176 -337 -326 -535 -124 -164
-280 -343 -597 -690 -197 -215 -357 -398 -460 -525 -47 -58 -88 -107 -91 -110
-4 -3 -50 -70 -104 -149 -188 -281 -274 -509 -275 -728 0 -106 54 -198 135
-229 102 -38 224 3 445 151 185 124 480 354 476 370 -7 25 -41 12 -100 -37
-186 -155 -453 -343 -573 -404 -118 -59 -198 -70 -253 -32 -79 54 -100 125
-82 278 20 172 101 366 241 578 154 232 280 384 771 922 333 366 454 511 606
730 256 367 363 709 305 974 -13 58 -72 198 -85 200 -5 0 -30 -60 -56 -134
-81 -231 -148 -379 -238 -525 -17 -27 -39 -63 -48 -80 -47 -84 -253 -331 -376
-451 -120 -117 -334 -299 -458 -389 -438 -319 -1004 -589 -1425 -680 -207 -45
-240 -49 -435 -48 -216 1 -311 16 -454 71 -151 59 -287 173 -359 302 -76 135
-99 237 -100 440 0 125 4 173 21 248 121 526 638 1090 1277 1392 378 179 775
289 1221 340 112 12 491 13 565 1 30 -5 88 -14 129 -21 172 -28 381 -95 543
-176 91 -46 117 -53 117 -31 -1 75 -24 203 -46 257 -96 237 -332 373 -686 397
-145 9 -161 32 -37 51 125 19 330 -18 459 -82 126 -63 243 -171 296 -271 59
-112 82 -196 94 -341 l8 -102 78 -79 c166 -165 241 -372 231 -633 -6 -161 -55
-404 -89 -445 -4 -5 -8 -15 -8 -22 0 -23 -91 -215 -148 -313 -97 -166 -237
-363 -363 -510 -26 -30 -82 -95 -124 -145 -43 -49 -82 -95 -89 -100 -6 -6 -42
-44 -81 -85 -38 -41 -207 -217 -375 -390 -168 -173 -335 -346 -371 -385 -247
-265 -419 -510 -419 -598 0 -23 9 -43 26 -62 22 -24 31 -27 66 -22 45 6 144
53 211 101 25 17 73 51 108 75 138 96 419 336 419 357 0 28 -28 11 -150 -92
-69 -58 -168 -138 -220 -178 -296 -227 -420 -278 -420 -174 0 36 18 72 87 173
142 207 247 323 768 855 384 392 612 649 777 878 301 415 437 760 438 1107 0
269 -79 474 -247 642 l-65 64 -9 102 c-26 275 -130 455 -340 590 -152 97 -390
152 -549 128 -92 -15 -122 -34 -118 -75 4 -40 35 -56 110 -56 70 0 199 -16
253 -32 123 -35 159 -49 235 -96 128 -79 201 -181 235 -329 18 -75 19 -113 5
-113 -6 0 -38 14 -72 31 -89 45 -228 97 -343 129 -197 54 -347 72 -622 71
l-213 0 0 955 0 954 193 0 c105 0 226 -5 267 -10 294 -37 460 -143 600 -380
28 -47 53 -92 55 -102 8 -22 30 -29 59 -18 23 8 24 13 19 67 -2 32 -10 163
-16 292 l-12 235 -25 6 c-33 9 -2754 10 -2767 2z M9125 15094 c-124 -11 -284
-34 -370 -54 -22 -5 -53 -12 -70 -16 -65 -14 -375 -105 -450 -132 -206 -75
-434 -182 -616 -289 -476 -280 -853 -727 -965 -1143 -49 -184 -52 -396 -7
-550 76 -259 278 -425 582 -475 127 -22 422 -16 541 9 347 75 706 214 1028
400 34 20 89 51 121 70 77 44 263 168 371 247 313 228 627 542 806 805 65 95
204 359 204 386 0 8 4 18 9 24 16 17 83 237 100 330 9 47 8 49 -27 82 -94 88
-261 176 -427 225 -131 39 -155 45 -255 61 -204 31 -372 37 -575 20z m450 -44
c162 -17 253 -37 405 -87 182 -60 390 -183 390 -231 0 -22 -33 -149 -60 -237
-37 -115 -75 -203 -143 -331 -179 -336 -470 -650 -889 -960 -157 -117 -191
-139 -365 -245 -442 -270 -878 -440 -1252 -489 -116 -16 -340 -14 -436 4 -323
58 -509 235 -560 530 -33 195 -6 397 83 606 92 218 213 390 417 594 227 226
487 396 870 566 186 82 579 208 612 196 11 -4 13 -97 13 -513 0 -622 -10 -758
-63 -859 -22 -41 -76 -90 -119 -109 -34 -13 -38 -19 -38 -50 l0 -35 444 0
c433 0 445 1 451 20 9 29 -10 56 -59 80 -57 27 -89 70 -115 151 -37 119 -41
192 -41 803 0 558 1 595 18 599 33 9 348 7 437 -3z M13272 14885 c-167 -41
-356 -137 -631 -323 -172 -116 -260 -186 -426 -337 -300 -273 -649 -623 -1160
-1160 -695 -733 -906 -946 -1168 -1182 -143 -129 -225 -209 -219 -215 16 -16
49 7 192 136 288 257 548 519 1260 1270 625 660 1119 1139 1370 1329 328 249
613 404 813 442 73 14 107 12 107 -5 0 -9 -134 -120 -179 -148 -55 -35 -543
-440 -676 -561 -22 -20 -76 -68 -120 -106 -230 -202 -474 -423 -805 -730 -244
-226 -247 -229 -615 -576 -261 -246 -547 -514 -630 -589 -22 -20 -92 -84 -155
-141 -177 -161 -293 -263 -319 -281 -15 -11 -21 -22 -17 -33 5 -13 9 -14 30
-3 21 12 175 141 230 193 11 11 93 85 181 164 164 149 368 338 580 541 208
199 308 293 370 350 113 104 319 295 420 390 55 52 121 113 145 135 25 23 95
86 155 140 61 55 130 118 155 140 24 22 69 63 100 90 189 173 661 582 810 701
41 34 129 101 195 151 192 145 210 168 165 213 -23 23 -76 25 -158 5z M11577
12960 c-61 -16 -118 -49 -164 -98 -71 -74 -97 -146 -96 -267 0 -82 4 -98 32
-158 38 -80 80 -123 164 -168 58 -31 68 -33 163 -33 65 -1 111 4 130 13 83 38
99 48 134 82 47 45 92 137 101 203 8 67 -6 176 -30 231 -28 63 -104 140 -168
171 -61 29 -198 41 -266 24z m170 -43 c156 -81 255 -339 193 -506 -25 -69 -59
-104 -126 -132 -154 -62 -326 51 -392 256 -10 32 -16 85 -16 146 0 86 3 101
27 142 29 49 73 87 122 106 39 14 155 7 192 -12z M12052 12962 c-15 -5 -16
-32 -2 -32 11 0 58 -95 90 -185 12 -33 27 -71 32 -85 6 -14 14 -34 19 -45 12
-31 130 -348 134 -362 3 -7 13 -13 23 -13 14 0 28 23 57 98 51 129 97 232 104
232 4 0 12 -18 19 -41 7 -22 21 -59 32 -82 10 -23 33 -76 49 -117 45 -114 64
-117 97 -15 8 28 19 59 24 70 12 31 45 121 80 220 17 50 35 99 40 110 4 11 23
57 40 103 18 45 41 94 52 108 25 30 21 35 -31 39 -43 3 -61 -9 -42 -28 13 -13
15 -80 2 -105 -12 -23 -25 -56 -51 -127 -12 -33 -30 -82 -41 -109 -10 -27 -19
-54 -19 -61 0 -25 -59 -165 -70 -165 -3 0 -14 24 -24 53 -11 28 -29 76 -42
105 -13 29 -24 55 -24 57 0 3 -10 26 -21 50 l-21 46 21 51 c11 28 21 54 21 59
0 20 52 120 72 139 27 25 24 27 -32 31 -40 4 -45 2 -42 -16 8 -52 4 -85 -18
-140 -28 -73 -37 -84 -46 -59 -4 10 -18 44 -32 74 -14 30 -26 74 -26 98 -1 23
-3 42 -6 43 -28 6 -133 3 -137 -4 -3 -5 5 -19 16 -31 12 -13 45 -77 72 -142
77 -181 75 -170 44 -239 -15 -33 -30 -69 -35 -80 -4 -11 -15 -38 -25 -60 l-18
-40 -20 45 c-20 45 -32 75 -87 220 -97 258 -102 273 -96 301 3 16 2 30 -2 30
-19 4 -119 5 -130 1z M9637 11603 c-20 -20 9 -83 38 -83 20 0 77 -55 96 -92
69 -134 72 -210 66 -1693 -4 -1274 -6 -1340 -37 -1456 -17 -60 -70 -131 -117
-154 -43 -20 -61 -50 -49 -80 5 -13 153 -15 1261 -15 996 0 1256 3 1260 13 2
6 11 149 20 317 9 168 18 310 19 315 6 20 -15 45 -38 45 -19 0 -29 -14 -61
-82 -86 -189 -229 -346 -382 -418 -91 -44 -151 -62 -278 -88 -66 -13 -163 -16
-550 -16 -468 -1 -470 -1 -515 22 -52 26 -85 69 -99 132 -7 29 -11 331 -11
838 l0 792 433 0 c523 -1 640 -13 799 -83 83 -37 132 -87 178 -182 38 -81 40
-83 67 -76 l28 7 0 380 0 379 -31 3 c-29 3 -32 0 -58 -62 -79 -186 -233 -254
-624 -276 -187 -11 -753 -13 -778 -3 -12 4 -14 135 -14 768 0 686 2 763 16
769 24 9 703 6 854 -4 169 -12 236 -23 330 -53 232 -75 382 -208 505 -452 34
-68 44 -80 65 -80 20 0 26 6 29 30 5 47 -41 618 -52 633 -7 9 -257 12 -1187
12 -647 0 -1180 -3 -1183 -7z M3142 12951 c-9 -24 -7 -94 3 -98 6 -1 18 11 27
27 22 39 76 62 136 58 l47 -3 0 -321 c0 -293 -2 -324 -17 -341 -10 -11 -18
-23 -18 -26 0 -4 38 -7 85 -7 47 0 85 3 85 7 0 3 -8 15 -17 26 -16 17 -18 48
-18 341 l0 321 62 -2 c67 -2 102 -18 123 -58 8 -14 18 -24 24 -22 12 4 13 93
2 105 -4 4 -123 7 -263 7 -206 0 -257 -3 -261 -14z M3767 12962 c-21 -4 -21
-11 -2 -36 22 -29 22 -613 0 -642 -29 -38 -20 -44 65 -44 44 0 80 3 80 7 0 3
-8 15 -17 26 -15 16 -19 43 -21 169 -2 90 0 154 6 160 5 5 88 10 191 11 142 2
182 -1 186 -11 3 -8 5 -75 5 -150 0 -119 -3 -141 -20 -170 -11 -18 -20 -35
-20 -37 0 -3 36 -5 80 -5 44 0 80 2 80 4 0 2 -9 24 -21 50 -19 44 -20 62 -17
324 3 249 5 281 21 306 10 15 16 31 12 34 -10 10 -129 12 -145 2 -12 -7 -11
-12 5 -30 18 -20 20 -37 20 -156 l0 -135 -183 0 c-100 0 -187 3 -193 7 -8 4
-10 50 -7 142 5 116 8 137 23 149 10 7 15 16 11 20 -7 8 -107 11 -139 5z
M4497 12958 c-8 -5 -5 -14 8 -28 19 -21 20 -38 20 -324 0 -271 -2 -305 -17
-329 -10 -14 -18 -29 -18 -32 0 -3 114 -5 254 -5 l254 0 4 60 c1 33 2 65 0 70
-6 18 -19 10 -32 -20 -25 -60 -86 -86 -212 -89 -145 -4 -138 -13 -138 189 l0
170 76 0 c92 0 163 -16 186 -41 29 -34 38 -23 38 51 0 72 -8 85 -33 50 -20
-29 -68 -40 -174 -40 l-93 0 0 150 0 150 101 0 c121 0 181 -21 217 -75 34 -52
46 -45 37 23 -4 31 -11 61 -15 66 -10 10 -447 14 -463 4z M15073 12953 c-3 -7
2 -22 11 -35 14 -19 16 -64 16 -319 0 -281 -1 -298 -20 -322 -11 -14 -20 -28
-20 -31 0 -3 114 -6 254 -6 l255 0 6 55 c4 30 4 63 0 72 -7 17 -8 17 -18 -1
-53 -87 -107 -109 -246 -104 -55 1 -103 7 -108 11 -4 5 -8 84 -8 175 l0 167
69 3 c97 4 171 -13 196 -46 28 -35 40 -17 40 60 0 63 -14 82 -39 50 -25 -32
-64 -42 -172 -42 l-100 0 3 148 3 147 115 0 c130 -1 165 -13 202 -72 11 -18
24 -33 29 -33 12 0 12 100 0 119 -12 19 -461 23 -468 4z M15678 12959 c-7 -5
-5 -15 6 -30 14 -20 16 -63 16 -335 0 -268 -2 -313 -15 -318 -8 -3 -15 -12
-15 -21 0 -13 23 -15 163 -15 221 0 292 23 387 123 87 91 112 280 54 402 -37
79 -118 148 -209 178 -35 11 -372 25 -387 16z m314 -38 c47 -15 135 -89 162
-138 39 -71 49 -115 49 -219 0 -87 -4 -110 -25 -156 -29 -62 -57 -93 -108
-115 -19 -8 -43 -19 -52 -24 -10 -5 -55 -9 -101 -9 -131 0 -122 -25 -125 332
-1 167 0 314 3 327 6 23 8 23 83 18 42 -3 94 -10 114 -16z M16420 12956 c-6
-6 -3 -17 8 -29 15 -17 17 -49 17 -327 0 -279 -2 -310 -18 -327 -9 -11 -14
-23 -10 -26 3 -4 39 -7 80 -7 76 0 92 12 58 40 -23 19 -22 615 1 648 9 13 14
25 13 27 -9 9 -140 10 -149 1z M16689 12962 c-35 -3 -37 -5 -44 -48 -9 -63 1
-71 42 -29 42 43 61 51 131 54 l53 2 -3 -324 c-3 -293 -5 -327 -21 -344 -9
-11 -14 -23 -10 -26 8 -9 163 -9 163 0 0 3 -8 15 -17 26 -16 17 -18 51 -21
345 l-3 325 67 -6 c73 -7 109 -25 126 -63 18 -39 33 -23 29 32 -1 27 -4 50 -5
52 -4 3 -446 7 -487 4z M4985 4850 c-143 -32 -230 -143 -195 -249 15 -45 93
-127 150 -156 55 -29 160 -55 243 -62 42 -3 77 -9 77 -14 0 -4 -14 -43 -32
-86 -27 -68 -31 -91 -32 -173 -1 -80 3 -102 22 -137 15 -30 22 -59 22 -101 0
-72 28 -120 81 -140 32 -12 40 -11 90 12 30 13 77 46 104 72 28 25 72 55 99
65 71 26 150 77 194 124 44 45 105 130 117 160 34 87 21 172 -31 212 -31 23
-43 25 -114 25 -44 -1 -87 -6 -97 -11 -10 -5 -49 -24 -86 -42 -108 -52 -217
-156 -279 -266 -40 -71 -52 -68 -45 10 7 77 34 160 76 229 l33 54 106 22 c98
21 143 33 197 52 55 19 232 115 285 156 71 53 105 96 115 142 14 67 -55 111
-145 91 -226 -50 -486 -216 -617 -393 l-37 -48 -60 6 c-179 18 -267 49 -349
127 -57 52 -60 58 -64 110 -4 48 -1 59 25 95 17 23 48 49 73 61 153 70 431 46
593 -52 61 -36 82 -39 52 -7 -27 31 -113 73 -190 94 -80 22 -313 33 -381 18z
m1075 -89 c0 -31 -8 -44 -52 -87 -112 -108 -290 -200 -458 -236 -78 -16 -130
-21 -130 -10 0 16 173 175 246 226 85 60 229 134 291 150 32 9 57 10 76 3 23
-8 27 -15 27 -46z m-177 -405 c32 -22 41 -51 35 -110 -9 -74 -54 -150 -133
-224 -66 -62 -170 -126 -187 -116 -4 2 11 39 33 81 41 82 52 126 24 103 -8 -7
-15 -18 -15 -24 0 -16 -68 -147 -87 -168 -12 -14 -32 -18 -80 -18 -74 0 -120
16 -157 56 -29 32 -33 56 -11 74 8 7 15 18 15 26 0 21 114 166 165 209 155
130 305 171 398 111z m-546 -492 c43 -22 63 -26 108 -22 68 6 70 -7 7 -47 -91
-59 -144 -55 -174 12 -17 38 -17 83 -1 83 3 0 30 -12 60 -26z M10044 4628
c-27 -18 -82 -64 -123 -103 -68 -64 -112 -115 -349 -403 -91 -111 -176 -190
-244 -227 -79 -43 -92 1 -26 84 213 264 252 305 280 298 25 -7 61 10 52 24 -3
6 -17 8 -30 5 -38 -10 -29 13 32 82 43 48 54 66 45 75 -16 16 -71 -15 -102
-56 -58 -80 -91 -107 -125 -105 -19 1 -36 -1 -40 -4 -9 -10 6 -29 17 -23 5 4
14 3 19 0 20 -12 -139 -192 -258 -293 -138 -116 -208 -142 -166 -61 18 36 171
232 185 237 5 2 9 13 9 24 0 17 -4 19 -32 13 -23 -5 -54 -29 -103 -81 -66 -70
-96 -87 -110 -64 -3 6 0 13 9 16 8 3 24 26 36 51 20 43 20 46 4 64 -23 26 -26
25 -69 -18 -33 -33 -36 -41 -33 -83 4 -52 -5 -66 -95 -147 -37 -33 -68 -53
-83 -53 -38 0 -30 35 24 104 122 155 152 196 152 206 0 14 -43 13 -62 -2 -9
-7 -40 -42 -69 -78 -122 -151 -241 -252 -266 -226 -12 12 25 71 111 179 47 59
86 114 86 122 0 21 -46 19 -67 -3 -23 -22 -100 -123 -146 -191 -44 -64 -49
-111 -15 -135 33 -23 48 -20 106 24 29 22 56 40 61 40 5 0 11 -13 14 -28 3
-15 16 -34 30 -41 21 -11 30 -10 74 13 28 14 79 54 115 91 58 58 93 77 110 59
4 -3 -5 -22 -18 -42 -33 -48 -30 -100 7 -121 24 -13 30 -13 65 3 22 10 62 36
91 57 29 22 55 39 58 39 4 0 4 -14 0 -31 -5 -24 -2 -36 16 -55 27 -29 47 -30
94 -4 20 11 40 20 46 20 6 0 8 -9 4 -20 -5 -16 -2 -20 19 -20 41 0 53 9 113
83 86 109 184 207 225 228 45 23 48 23 48 3 0 -16 -34 -65 -87 -126 -46 -53
-76 -115 -69 -145 9 -32 49 -47 91 -33 61 20 289 209 273 226 -4 4 -31 -14
-60 -41 -88 -79 -94 -83 -148 -120 -51 -34 -100 -46 -100 -24 0 6 33 54 74
108 90 117 103 144 81 177 -19 30 -52 31 -99 3 -20 -12 -36 -17 -36 -12 0 10
43 53 53 53 18 0 220 131 274 177 71 63 135 143 152 192 9 29 8 37 -5 53 -25
27 -64 22 -120 -14z m104 -10 c2 -10 -4 -32 -13 -51 -16 -35 -116 -141 -170
-182 -32 -25 -194 -125 -201 -125 -10 0 -3 30 9 37 8 4 28 28 46 53 54 76 197
226 248 259 50 34 76 36 81 9z m-1138 -458 c0 -32 -53 -100 -67 -86 -11 11 35
96 52 96 8 0 15 -5 15 -10z M12955 4633 c-73 -38 -214 -171 -343 -323 -11 -14
-32 -38 -46 -54 -14 -17 -83 -108 -153 -203 -111 -149 -132 -172 -155 -173
-29 0 -37 -17 -18 -36 7 -7 -10 -44 -54 -117 -36 -58 -62 -109 -57 -112 5 -2
22 -2 37 1 23 4 43 27 99 112 64 98 73 107 103 109 45 4 111 34 183 83 l59 40
0 -31 c0 -34 46 -89 75 -89 32 0 129 56 182 104 45 40 61 49 97 52 61 4 97 25
170 100 51 52 68 64 94 64 18 0 32 -4 32 -9 0 -6 -25 -31 -56 -58 -64 -55
-124 -145 -124 -185 0 -35 39 -63 76 -54 41 11 123 70 197 143 61 60 78 83 61
83 -3 0 -40 -32 -82 -71 -93 -87 -158 -133 -178 -125 -35 13 13 94 124 208 46
47 81 91 78 96 -3 5 -27 7 -52 4 l-46 -5 6 30 c10 42 -16 63 -44 38 -11 -10
-20 -26 -20 -36 0 -24 -104 -135 -159 -171 -42 -26 -80 -35 -94 -22 -3 3 3 20
14 37 23 39 25 109 4 127 -10 9 -32 11 -65 7 -64 -8 -142 -57 -240 -152 -70
-67 -151 -125 -210 -152 -61 -26 -80 -32 -84 -24 -3 4 23 46 57 93 34 46 87
118 117 159 49 68 63 80 145 124 164 88 302 207 354 306 42 81 -3 125 -84 82z
m65 -18 c7 -8 10 -25 7 -37 -8 -30 -82 -117 -146 -171 -54 -46 -221 -150 -228
-143 -8 8 131 178 222 272 38 39 112 94 126 94 4 0 12 -7 19 -15z m-66 -468
c9 -14 5 -28 -17 -70 -32 -62 -70 -104 -142 -157 -64 -47 -93 -56 -120 -36
-20 15 -20 15 3 59 30 57 156 188 202 210 41 20 59 18 74 -6z M10792 4601
c-83 -54 -203 -175 -348 -351 -182 -220 -224 -285 -224 -338 0 -36 30 -72 59
-72 29 0 81 25 144 69 32 23 60 41 62 41 3 0 5 -12 5 -26 0 -60 55 -96 113
-73 44 18 115 65 159 107 29 28 47 36 78 38 50 3 106 35 193 113 70 62 97 75
97 43 0 -20 -21 -52 -66 -102 -81 -88 -101 -130 -85 -173 25 -64 105 -34 226
84 67 65 72 68 107 63 l37 -6 -6 -50 c-13 -112 73 -159 177 -94 19 12 47 27
62 35 39 20 184 158 175 167 -4 4 -26 -10 -50 -32 -126 -121 -258 -189 -305
-160 -29 17 4 96 39 96 28 0 161 75 188 106 50 57 37 114 -27 114 -29 0 -133
-57 -172 -94 -47 -44 -94 -70 -114 -63 -16 7 -23 37 -8 37 12 0 32 46 32 74 0
13 -7 29 -15 36 -43 36 -108 -67 -81 -130 8 -19 6 -21 -87 -107 -53 -50 -85
-73 -102 -73 -28 0 -35 28 -12 52 97 105 147 180 147 221 0 77 -103 57 -190
-38 -47 -50 -116 -95 -149 -95 -17 0 -31 1 -31 3 0 2 9 22 20 45 11 22 20 57
20 77 0 31 -4 38 -31 49 -26 11 -39 11 -73 1 -55 -17 -96 -37 -96 -46 0 -4 -8
-10 -18 -13 -9 -3 -56 -43 -102 -89 -85 -83 -184 -158 -228 -171 -62 -20 -27
69 90 228 69 93 78 101 158 144 212 112 376 270 368 354 -3 30 -6 33 -38 36
-27 2 -50 -6 -98 -37z m111 -14 c-1 -15 -17 -46 -35 -69 -39 -50 -200 -185
-254 -214 -22 -11 -49 -27 -61 -34 -43 -28 -33 -1 31 81 152 197 325 325 319
236z m717 -417 c13 -8 13 -14 -4 -44 -10 -20 -31 -43 -45 -53 -47 -31 -129
-71 -135 -66 -8 8 83 116 122 145 42 31 42 31 62 18z m-790 -15 c10 -12 8 -25
-13 -67 -36 -73 -79 -122 -147 -168 -70 -47 -102 -57 -119 -36 -21 25 3 74 74
153 68 74 146 133 175 133 10 0 23 -7 30 -15z m486 1 c6 -15 -33 -86 -47 -86
-15 0 -10 54 7 78 17 25 32 28 40 8z M14233 4601 c-87 -59 -222 -196 -369
-376 -132 -162 -188 -244 -200 -290 -10 -40 3 -71 36 -85 38 -16 91 4 167 61
29 21 55 39 58 39 3 0 5 -9 5 -20 0 -56 61 -106 101 -82 10 7 24 12 30 12 15
0 98 57 141 98 29 27 46 35 82 37 51 4 106 38 198 122 60 55 88 66 88 35 0
-22 -20 -52 -87 -126 -58 -65 -81 -122 -63 -156 15 -29 52 -34 91 -14 48 24
155 110 179 144 18 25 24 28 63 23 50 -7 54 -10 39 -25 -38 -38 7 -140 67
-153 54 -12 181 62 294 172 65 63 41 68 -28 6 -66 -60 -98 -83 -155 -115 -67
-37 -94 -41 -120 -20 -34 27 -21 69 28 89 154 62 222 115 222 170 0 33 -21 53
-56 53 -31 0 -108 -42 -164 -90 -64 -54 -91 -70 -119 -70 -22 0 -29 24 -10 36
6 3 18 22 26 41 12 31 12 38 -2 59 -21 32 -38 30 -69 -7 -21 -25 -26 -41 -26
-88 0 -55 -2 -58 -47 -102 -68 -65 -116 -99 -141 -99 -41 0 -28 28 65 138 47
56 83 118 83 143 0 17 -33 39 -58 39 -36 0 -79 -27 -152 -97 -60 -57 -103 -81
-147 -82 -28 -1 -28 -1 -4 41 58 103 10 164 -100 126 -53 -18 -125 -70 -213
-155 -123 -118 -229 -183 -242 -149 -8 22 27 86 115 211 76 106 81 111 162
154 127 67 196 117 279 200 112 113 130 191 45 191 -21 0 -53 -14 -92 -39z
m113 5 c19 -50 -146 -219 -299 -305 -21 -12 -50 -29 -65 -39 l-26 -17 24 43
c39 70 122 164 212 241 45 40 88 76 93 81 16 14 55 11 61 -4z m720 -440 c8
-21 -22 -73 -54 -93 -15 -9 -38 -23 -52 -32 -14 -9 -37 -21 -52 -28 -46 -20
-35 5 35 79 78 83 112 104 123 74z m-797 -9 c52 -63 -194 -317 -269 -277 -28
15 -25 30 19 96 44 66 106 129 165 168 43 29 68 33 85 13z m486 -19 c-12 -54
-55 -91 -55 -48 0 31 28 80 46 80 12 0 14 -7 9 -32z M8333 4488 c-28 -32 -182
-235 -217 -285 -16 -24 -32 -43 -36 -43 -4 0 -15 9 -25 20 -49 54 -156 2 -331
-160 -98 -92 -215 -157 -256 -141 -29 11 -39 30 -31 59 4 16 67 52 143 80 59
22 130 95 130 135 0 23 -28 47 -54 47 -49 0 -141 -60 -241 -155 -55 -53 -123
-112 -152 -131 -79 -52 -124 -43 -91 19 14 27 243 305 271 330 12 11 31 17 44
14 28 -5 67 19 43 27 -8 3 -24 6 -34 8 -16 3 -10 14 37 70 32 36 57 72 57 79
0 13 -60 5 -70 -10 -3 -5 -34 -41 -69 -81 -54 -60 -69 -71 -90 -67 -28 6 -51
-1 -51 -14 0 -5 9 -9 19 -9 11 0 22 -4 26 -9 3 -5 -42 -64 -100 -129 -110
-126 -273 -262 -313 -262 -43 0 -30 25 97 185 63 80 81 109 72 118 -8 8 -19 8
-42 0 -23 -9 -37 -9 -52 -1 -66 35 -212 -34 -334 -158 -119 -120 -203 -170
-203 -119 0 27 65 119 139 196 39 41 69 79 67 85 -3 8 -21 10 -50 7 l-45 -6 6
35 c3 21 1 38 -6 42 -18 12 -49 -12 -56 -43 -7 -34 -194 -235 -278 -299 -53
-41 -87 -53 -87 -31 0 12 121 176 182 246 21 24 38 48 38 54 0 5 -14 9 -32 9
-25 0 -39 -9 -67 -42 -70 -81 -242 -255 -266 -268 -33 -18 -59 -7 -45 19 14
28 104 145 162 212 26 31 48 62 48 68 0 15 -51 14 -70 -2 -26 -21 -105 -119
-154 -191 -55 -81 -59 -120 -14 -145 24 -14 30 -14 61 1 19 9 51 31 71 48 l36
32 0 -29 c0 -17 9 -38 20 -48 16 -14 24 -15 51 -6 52 18 132 86 246 207 94
102 108 113 132 107 14 -3 28 -7 30 -9 2 -2 -24 -30 -59 -61 -80 -73 -120
-134 -120 -185 0 -72 67 -76 155 -8 60 47 75 49 75 15 0 -29 40 -75 65 -75 23
0 87 35 109 59 24 27 40 27 33 0 -6 -23 23 -59 49 -59 23 0 110 45 154 80 48
38 63 39 50 5 -12 -32 11 -72 45 -81 31 -8 101 28 166 83 l54 46 8 -39 c10
-48 41 -82 82 -90 35 -6 81 13 171 72 61 40 66 41 58 10 -9 -36 3 -62 35 -76
37 -15 73 -5 127 37 41 30 74 37 58 12 -9 -15 36 -59 60 -59 12 0 39 11 60 24
50 30 227 207 219 219 -3 5 -44 -29 -92 -76 -88 -87 -153 -137 -178 -137 -41
0 -16 42 168 288 106 141 206 272 221 290 15 18 28 39 28 47 0 23 -44 18 -67
-7z m-1333 -346 c0 -49 -225 -272 -274 -272 -53 0 -12 80 97 190 82 84 130
114 159 99 10 -5 18 -13 18 -17z m670 8 c0 -11 -15 -36 -32 -54 -37 -38 -145
-99 -153 -87 -7 12 80 116 118 140 41 27 67 27 67 1z m368 -3 c8 -39 -12 -71
-91 -150 -93 -92 -170 -138 -192 -116 -21 21 16 84 98 169 106 111 176 147
185 97z M9242 4308 c-17 -17 -15 -45 4 -52 25 -9 56 12 52 37 -3 25 -37 34
-56 15z M11825 3922 c-32 -23 -35 -39 -13 -67 l22 -28 -30 -26 c-16 -14 -42
-36 -58 -49 -43 -33 -23 -39 24 -7 47 33 110 114 110 142 0 33 -31 53 -55 35z
M15256 3914 c-37 -37 0 -88 42 -58 24 17 28 44 10 62 -16 16 -33 15 -52 -4z"/>
</g>
</svg>