<svg xmlns="http://www.w3.org/2000/svg" viewBox="0 0 911 1540" width="456" height="770" color="#F2E9DC" role="img" aria-label="The Vow Edit">
<title>The Vow Edit</title>
<g transform="translate(0.000000,1540.000000) scale(0.100000,-0.100000)"
fill="currentColor" stroke="none">
<path d="M4065 15109 c-309 -33 -408 -50 -665 -111 -481 -116 -921 -315 -1360
-615 -337 -231 -721 -606 -957 -933 -46 -64 -223 -329 -223 -334 0 -2 -18 -34
-40 -71 -82 -133 -204 -397 -282 -605 -116 -310 -187 -617 -233 -1005 l-26
-220 3 -3575 3 -3575 28 -195 c24 -172 43 -272 92 -495 21 -91 108 -365 159
-498 146 -380 386 -789 650 -1107 39 -47 82 -98 96 -115 53 -65 350 -354 425
-415 44 -36 86 -70 93 -77 51 -49 322 -237 462 -320 180 -106 422 -226 590
-290 123 -47 284 -103 339 -117 31 -8 99 -26 152 -40 175 -45 342 -77 514 -97
147 -16 239 -19 677 -19 585 0 683 7 1002 71 101 20 118 25 316 78 467 127
997 401 1403 724 271 216 548 500 742 763 332 448 565 941 696 1474 31 126 34
140 63 305 47 263 46 128 46 4000 0 3170 -2 3657 -15 3774 -24 217 -28 240
-86 491 -207 903 -748 1741 -1494 2311 -248 190 -460 317 -785 474 -228 110
-664 252 -907 296 -29 5 -79 14 -110 19 -32 6 -152 22 -268 35 -192 23 -244
25 -615 24 -223 -1 -441 -5 -485 -10z m665 -39 c384 -33 783 -126 1115 -260
44 -17 109 -43 145 -58 95 -38 414 -202 501 -257 178 -114 221 -144 339 -234
69 -52 170 -134 225 -182 163 -140 448 -443 540 -573 11 -16 25 -33 30 -40 29
-33 195 -272 195 -281 0 -3 15 -28 34 -57 254 -400 474 -1000 541 -1478 9 -63
21 -144 28 -180 16 -90 23 -7241 7 -7439 -11 -140 -50 -404 -76 -519 -53 -236
-136 -512 -199 -657 -7 -16 -27 -64 -45 -105 -204 -472 -502 -906 -880 -1279
-167 -165 -259 -243 -515 -432 -137 -101 -392 -250 -583 -341 -67 -32 -125
-58 -127 -58 -3 0 -24 -9 -48 -19 -344 -154 -832 -274 -1229 -303 -431 -31
-988 73 -1513 282 -195 78 -460 213 -643 329 -71 44 -342 237 -352 250 -3 4
-27 24 -55 46 -223 175 -552 525 -715 760 -19 28 -38 52 -42 55 -7 5 -168 262
-202 321 -83 146 -212 420 -256 542 -10 29 -30 84 -45 122 -35 94 -100 323
-134 475 -36 161 -66 369 -81 560 -13 178 -13 7095 0 7267 54 697 283 1365
661 1929 173 259 298 412 504 620 404 405 805 676 1350 909 278 119 700 227
1050 269 224 27 312 30 475 16z m-735 -20 c-11 -5 -31 -9 -45 -9 -48 -2 -415
-100 -555 -149 -493 -173 -979 -456 -1345 -784 -314 -281 -547 -551 -755 -873
-49 -76 -215 -361 -215 -370 0 -1 -22 -49 -49 -106 -118 -250 -198 -483 -286
-829 -17 -66 -52 -264 -66 -370 -38 -299 -39 -333 -39 -3865 0 -3312 2 -3528
31 -3795 39 -362 144 -766 286 -1104 58 -139 159 -345 212 -434 17 -29 31 -55
31 -57 0 -6 136 -220 165 -260 54 -74 172 -232 190 -254 390 -472 816 -815
1350 -1086 200 -101 322 -153 535 -226 98 -34 442 -124 513 -134 56 -9 73 -25
25 -25 -38 0 -385 55 -438 69 -19 5 -93 24 -165 42 -642 160 -1250 490 -1745
947 -99 91 -318 319 -357 371 -10 12 -38 48 -63 80 -279 346 -492 726 -651
1159 -27 72 -56 158 -64 190 -47 167 -62 228 -99 397 -18 86 -43 246 -58 380
-17 145 -24 7112 -8 7350 12 178 50 454 77 565 52 212 78 307 110 405 158 491
410 944 754 1360 108 130 364 385 509 507 317 265 711 500 1085 648 44 18 89
36 100 41 127 56 551 168 755 199 41 7 93 16 115 20 56 11 186 11 160 0z
m1375 -15 c144 -24 294 -54 415 -85 62 -16 348 -110 435 -143 309 -117 658
-312 960 -536 294 -217 670 -601 863 -881 55 -80 168 -254 199 -305 296 -500
490 -1093 543 -1665 22 -228 22 -7227 0 -7455 -86 -921 -508 -1812 -1172
-2471 -251 -249 -556 -486 -823 -637 -36 -21 -72 -42 -80 -47 -19 -12 -280
-141 -340 -168 -73 -32 -300 -119 -360 -137 -30 -9 -73 -23 -95 -30 -150 -51
-539 -130 -740 -150 -89 -9 -76 7 20 25 182 34 520 132 670 195 17 6 66 27
110 45 147 61 418 203 573 299 551 344 1010 811 1346 1371 89 148 232 429 281
555 15 39 33 84 40 100 62 149 151 475 201 735 62 323 59 89 59 4030 0 3388
-1 3595 -18 3760 -10 96 -22 195 -27 220 -5 25 -14 74 -20 110 -26 141 -94
402 -140 540 -145 432 -332 790 -611 1167 -330 446 -799 855 -1289 1127 -200
111 -420 208 -660 293 -126 45 -493 142 -540 144 -14 0 -34 4 -45 9 -42 18 92
10 245 -15z"/>
<path d="M2033 11582 c-8 -6 -14 -80 -39 -503 l-6 -96 28 -6 c36 -7 40 -4 62
41 129 259 287 391 534 443 88 19 137 22 343 23 l240 1 0 -988 0 -988 -150
-39 c-146 -37 -273 -77 -385 -120 -30 -12 -75 -28 -100 -36 -70 -24 -387 -185
-481 -245 -395 -251 -735 -611 -896 -949 -78 -162 -102 -234 -129 -390 -19
-113 -15 -316 10 -421 45 -190 150 -352 294 -451 51 -35 202 -107 252 -120
258 -67 601 -59 890 21 19 5 71 19 115 31 157 42 356 121 580 229 649 314
1253 818 1553 1297 99 159 180 326 248 514 19 52 39 99 44 104 13 13 48 -111
56 -196 10 -113 -34 -329 -93 -458 -86 -189 -176 -337 -326 -535 -124 -164
-280 -343 -597 -690 -197 -215 -357 -398 -460 -525 -47 -58 -88 -107 -91 -110
-4 -3 -50 -70 -104 -149 -188 -281 -274 -509 -275 -728 0 -106 54 -198 135
-229 102 -38 224 3 445 151 185 124 480 354 476 370 -7 25 -41 12 -100 -37
-186 -155 -453 -343 -573 -404 -118 -59 -198 -70 -253 -32 -79 54 -100 125
-82 278 20 172 101 366 241 578 154 232 280 384 771 922 333 366 454 511 606
730 256 367 363 709 305 974 -13 58 -72 198 -85 200 -5 0 -30 -60 -56 -134
-81 -231 -148 -379 -238 -525 -17 -27 -39 -63 -48 -80 -47 -84 -253 -331 -376
-451 -120 -117 -334 -299 -458 -389 -438 -319 -1004 -589 -1425 -680 -207 -45
-240 -49 -435 -48 -216 1 -311 16 -454 71 -151 59 -287 173 -359 302 -76 135
-99 237 -100 440 0 125 4 173 21 248 121 526 638 1090 1277 1392 378 179 775
289 1221 340 112 12 491 13 565 1 30 -5 88 -14 129 -21 172 -28 381 -95 543
-176 91 -46 117 -53 117 -31 -1 75 -24 203 -46 257 -96 237 -332 373 -686 397
-145 9 -161 32 -37 51 125 19 330 -18 459 -82 126 -63 243 -171 296 -271 59
-112 82 -196 94 -341 l8 -102 78 -79 c166 -165 241 -372 231 -633 -6 -161 -55
-404 -89 -445 -4 -5 -8 -15 -8 -22 0 -23 -91 -215 -148 -313 -97 -166 -237
-363 -363 -510 -26 -30 -82 -95 -124 -145 -43 -49 -82 -95 -89 -100 -6 -6 -42
-44 -81 -85 -38 -41 -207 -217 -375 -390 -168 -173 -335 -346 -371 -385 -247
-265 -419 -510 -419 -598 0 -23 9 -43 26 -62 22 -24 31 -27 66 -22 45 6 144
53 211 101 25 17 73 51 108 75 138 96 419 336 419 357 0 28 -28 11 -150 -92
-69 -58 -168 -138 -220 -178 -296 -227 -420 -278 -420 -174 0 36 18 72 87 173
142 207 247 323 768 855 384 392 612 649 777 878 301 415 437 760 438 1107 0
269 -79 474 -247 642 l-65 64 -9 102 c-26 275 -130 455 -340 590 -152 97 -390
152 -549 128 -92 -15 -122 -34 -118 -75 4 -40 35 -56 110 -56 70 0 199 -16
253 -32 123 -35 159 -49 235 -96 128 -79 201 -181 235 -329 18 -75 19 -113 5
-113 -6 0 -38 14 -72 31 -89 45 -228 97 -343 129 -197 54 -347 72 -622 71
l-213 0 0 955 0 954 193 0 c105 0 226 -5 267 -10 294 -37 460 -143 600 -380
28 -47 53 -92 55 -102 8 -22 30 -29 59 -18 23 8 24 13 19 67 -2 32 -10 163
-16 292 l-12 235 -25 6 c-33 9 -2754 10 -2767 2z"/>
<path d="M3665 9474 c-124 -11 -284 -34 -370 -54 -22 -5 -53 -12 -70 -16 -65
-14 -375 -105 -450 -132 -206 -75 -434 -182 -616 -289 -476 -280 -853 -727
-965 -1143 -49 -184 -52 -396 -7 -550 76 -259 278 -425 582 -475 127 -22 422
-16 541 9 347 75 706 214 1028 400 34 20 89 51 121 70 77 44 263 168 371 247
313 228 627 542 806 805 65 95 204 359 204 386 0 8 4 18 9 24 16 17 83 237
100 330 9 47 8 49 -27 82 -94 88 -261 176 -427 225 -131 39 -155 45 -255 61
-204 31 -372 37 -575 20z m450 -44 c162 -17 253 -37 405 -87 182 -60 390 -183
390 -231 0 -22 -33 -149 -60 -237 -37 -115 -75 -203 -143 -331 -179 -336 -470
-650 -889 -960 -157 -117 -191 -139 -365 -245 -442 -270 -878 -440 -1252 -489
-116 -16 -340 -14 -436 4 -323 58 -509 235 -560 530 -33 195 -6 397 83 606 92
218 213 390 417 594 227 226 487 396 870 566 186 82 579 208 612 196 11 -4 13
-97 13 -513 0 -622 -10 -758 -63 -859 -22 -41 -76 -90 -119 -109 -34 -13 -38
-19 -38 -50 l0 -35 444 0 c433 0 445 1 451 20 9 29 -10 56 -59 80 -57 27 -89
70 -115 151 -37 119 -41 192 -41 803 0 558 1 595 18 599 33 9 348 7 437 -3z"/>
<path d="M7812 9265 c-167 -41 -356 -137 -631 -323 -172 -116 -260 -186 -426
-337 -300 -273 -649 -623 -1160 -1160 -695 -733 -906 -946 -1168 -1182 -143
-129 -225 -209 -219 -215 16 -16 49 7 192 136 288 257 548 519 1260 1270 625
660 1119 1139 1370 1329 328 249 613 404 813 442 73 14 107 12 107 -5 0 -9
-134 -120 -179 -148 -55 -35 -543 -440 -676 -561 -22 -20 -76 -68 -120 -106
-230 -202 -474 -423 -805 -730 -244 -226 -247 -229 -615 -576 -261 -246 -547
-514 -630 -589 -22 -20 -92 -84 -155 -141 -177 -161 -293 -263 -319 -281 -15
-11 -21 -22 -17 -33 5 -13 9 -14 30 -3 21 12 175 141 230 193 11 11 93 85 181
164 164 149 368 338 580 541 208 199 308 293 370 350 113 104 319 295 420 390
55 52 121 113 145 135 25 23 95 86 155 140 61 55 130 118 155 140 24 22 69 63
100 90 189 173 661 582 810 701 41 34 129 101 195 151 192 145 210 168 165
213 -23 23 -76 25 -158 5z"/>
<path d="M4177 5983 c-20 -20 9 -83 38 -83 20 0 77 -55 96 -92 69 -134 72
-210 66 -1693 -4 -1274 -6 -1340 -37 -1456 -17 -60 -70 -131 -117 -154 -43
-20 -61 -50 -49 -80 5 -13 153 -15 1261 -15 996 0 1256 3 1260 13 2 6 11 149
20 317 9 168 18 310 19 315 6 20 -15 45 -38 45 -19 0 -29 -14 -61 -82 -86
-189 -229 -346 -382 -418 -91 -44 -151 -62 -278 -88 -66 -13 -163 -16 -550
-16 -468 -1 -470 -1 -515 22 -52 26 -85 69 -99 132 -7 29 -11 331 -11 838 l0
792 433 0 c523 -1 640 -13 799 -83 83 -37 132 -87 178 -182 38 -81 40 -83 67
-76 l28 7 0 380 0 379 -31 3 c-29 3 -32 0 -58 -62 -79 -186 -233 -254 -624
-276 -187 -11 -753 -13 -778 -3 -12 4 -14 135 -14 768 0 686 2 763 16 769 24
9 703 6 854 -4 169 -12 236 -23 330 -53 232 -75 382 -208 505 -452 34 -68 44
-80 65 -80 20 0 26 6 29 30 5 47 -41 618 -52 633 -7 9 -257 12 -1187 12 -647
0 -1180 -3 -1183 -7z"/>
</g>
</svg>